<svg width="100" height="100" viewBox="0 0 100 100" fill="none" xmlns="http://www.w3.org/2000/svg">
<circle opacity="0.05" cx="50" cy="50" r="50" fill="white"/>
<g clip-path="url(#clip0)">
<path d="M65.246 72.554V64.4H63.446V68H36.5146L36.4992 66.1921L34.6992 66.2079L34.7524 72.554C34.7555 75.0084 36.7449 76.9974 39.1992 77H60.7992C63.254 76.9974 65.2434 75.0084 65.246 72.554ZM60.7992 75.2H39.1992C37.7358 75.1974 36.5511 74.0095 36.5524 72.5457L36.53 69.8H63.446V72.554C63.4443 74.0148 62.2604 75.1987 60.7992 75.2Z" fill="white"/>
<path d="M49.0991 71.6H50.8991V73.4H49.0991V71.6Z" fill="white"/>
<path d="M55.3989 32V33.8H63.4458V35.6H65.2458V31.046C65.2431 28.5916 63.2537 26.6026 60.7989 26.6H55.3989V28.4H60.7989C62.2601 28.4013 63.444 29.5852 63.4458 31.046V32H55.3989Z" fill="white"/>
<path d="M28.3989 26.6V37.4C28.3989 39.3881 30.0108 41 31.9989 41H38.0291L43.2023 44.4488C43.4783 44.6316 43.8325 44.6479 44.1243 44.4915C44.4161 44.335 44.5985 44.0309 44.5989 43.7V41H49.9989C51.9874 41 53.5989 39.3881 53.5989 37.4V26.6C53.5989 24.6119 51.9874 23 49.9989 23H31.9989C30.0108 23 28.3989 24.6119 28.3989 26.6ZM51.7989 26.6V37.4C51.7989 38.394 50.993 39.2 49.9989 39.2H43.6989C43.2019 39.2 42.7989 39.603 42.7989 40.1V42.0187L38.7986 39.3512C38.6505 39.2527 38.4769 39.2004 38.2989 39.2H31.9989C31.0049 39.2 30.1989 38.394 30.1989 37.4V26.6C30.1989 25.606 31.0049 24.8 31.9989 24.8H49.9989C50.993 24.8 51.7989 25.606 51.7989 26.6Z" fill="white"/>
<path d="M33.7992 64.4C36.109 64.3969 38.3572 63.6551 40.2152 62.2832L44.3553 63.4657C44.699 63.5642 45.0681 63.4503 45.2962 63.1757C45.5243 62.901 45.5682 62.5169 45.4082 62.1979L43.4896 58.3698C45.6192 54.0438 44.6234 48.8306 41.0489 45.594C37.4748 42.3579 32.1882 41.8829 28.0942 44.4304C24.0003 46.9779 22.0909 51.9305 23.4154 56.5667C24.7403 61.203 28.9775 64.3996 33.7992 64.4ZM33.7992 44.6C36.9791 44.6 39.923 46.2783 41.5433 49.0147C43.1635 51.7508 43.2193 55.139 41.6905 57.9273C41.5485 58.1861 41.5424 58.4981 41.6742 58.7623L42.8796 61.1727L40.2693 60.4273C39.9885 60.3482 39.6866 60.4102 39.4594 60.5939C37.862 61.8982 35.8616 62.6075 33.7992 62.6C28.8286 62.6 24.7992 58.5707 24.7992 53.6C24.7992 48.6293 28.8286 44.6 33.7992 44.6Z" fill="white"/>
<path d="M28.0905 55.4901L33.2286 59.6983C33.5604 59.9703 34.0381 59.9703 34.3699 59.6983L39.508 55.4901C40.3478 54.8107 40.8791 53.8219 40.9819 52.7465C41.0821 51.6853 40.7499 50.6279 40.0604 49.8145C39.2909 48.9132 38.1856 48.367 37.0026 48.3028C35.8192 48.2386 34.6617 48.6627 33.799 49.4753C32.9315 48.6627 31.7696 48.24 30.5827 48.3054C29.4032 48.3678 28.3019 48.9141 27.5377 49.8145C26.8482 50.6279 26.516 51.6853 26.6162 52.7465C26.719 53.8219 27.2503 54.8107 28.0905 55.4901ZM28.9185 50.9694C29.3623 50.4495 30.0008 50.1358 30.6833 50.1024H30.8266C31.4695 50.0997 32.0891 50.3441 32.5571 50.7848L33.1772 51.3768C33.5252 51.7094 34.0732 51.7094 34.4209 51.3768L35.0414 50.7848C35.5432 50.3155 36.2143 50.0707 36.9007 50.1063C37.5871 50.1419 38.2292 50.4552 38.68 50.9738C39.0593 51.4198 39.243 51.9999 39.1902 52.5831C39.1313 53.1794 38.8343 53.7274 38.3667 54.1023L33.799 57.8363L29.2318 54.0948C28.7638 53.7199 28.4671 53.1724 28.4083 52.5756C28.3551 51.9924 28.5392 51.4128 28.9185 50.9668V50.9694Z" fill="white"/>
<path d="M64.3989 37.4C59.9253 37.3943 55.7852 39.7643 53.5251 43.6249C51.265 47.4855 51.2246 52.2557 53.4192 56.1541L51.018 60.35C50.8392 60.6629 50.8642 61.0527 51.0822 61.3401C51.2997 61.6271 51.668 61.7567 52.0178 61.6693L57.2539 60.3601C59.3501 61.8209 61.844 62.6027 64.3989 62.6C71.3577 62.6 76.9989 56.9588 76.9989 50C76.9989 43.0413 71.3577 37.4 64.3989 37.4ZM64.3989 60.8C62.0839 60.8027 59.8304 60.0543 57.9768 58.6669C57.8208 58.55 57.6314 58.4872 57.4367 58.4872C57.3628 58.4867 57.2895 58.4955 57.2178 58.514L53.6235 59.414L55.2355 56.5927C55.3998 56.3053 55.3937 55.9511 55.2192 55.6698C52.6414 51.4871 53.2153 46.0906 56.6145 42.5429C60.0141 38.9957 65.3807 38.1924 69.6702 40.5891C73.9592 42.9859 76.0875 47.9777 74.8478 52.7321C73.6077 57.4865 69.3125 60.8031 64.3989 60.8Z" fill="white"/>
<path d="M69.4393 47.3H67.9992V45.5C67.9992 43.5119 66.3877 41.9 64.3992 41.9C63.4052 41.9 62.5992 42.706 62.5992 43.7V46.0273L61.3266 47.3H58.0992C57.6022 47.3 57.1992 47.703 57.1992 48.2V55.4C57.1992 55.897 57.6022 56.3 58.0992 56.3H69.4393C70.6324 56.3 71.5992 55.3328 71.5992 54.1401V49.4599C71.5992 48.2672 70.6324 47.3 69.4393 47.3ZM58.9992 49.1H60.7992V54.5H58.9992V49.1ZM69.7992 54.1401C69.7992 54.3387 69.6379 54.5 69.4393 54.5H62.5992V48.5727L64.1355 47.0363C64.3043 46.8676 64.3992 46.6386 64.3992 46.4V43.7C65.3933 43.7 66.1992 44.506 66.1992 45.5V47.3C65.7022 47.3 65.2992 47.703 65.2992 48.2C65.2992 48.697 65.7022 49.1 66.1992 49.1H69.4393C69.6379 49.1 69.7992 49.2613 69.7992 49.4599V54.1401Z" fill="white"/>
<path d="M33.7989 37.4H42.7989C43.2959 37.4 43.6989 36.997 43.6989 36.5V35.2564L47.7968 37.3099C48.0763 37.4497 48.409 37.4343 48.6744 37.2691C48.9398 37.1038 49.1007 36.8129 49.0989 36.5V27.5C49.0994 27.188 48.9376 26.8984 48.6727 26.734C48.4072 26.5701 48.0759 26.5552 47.7968 26.6945L43.6989 28.7437V27.5C43.6989 27.003 43.2959 26.6 42.7989 26.6H33.7989C33.3019 26.6 32.8989 27.003 32.8989 27.5V36.5C32.8989 36.997 33.3019 37.4 33.7989 37.4ZM34.6989 28.4H41.8989V30.2C41.8989 30.512 42.0602 30.8016 42.3256 30.966C42.5911 31.1299 42.9224 31.1448 43.2015 31.0055L47.2989 28.9564V35.0437L43.2015 32.9945C42.9224 32.8552 42.5911 32.8701 42.3256 33.034C42.0602 33.1984 41.8989 33.488 41.8989 33.8V35.6H34.6989V28.4Z" fill="white"/>
</g>
<defs>
<clipPath id="clip0">
<rect width="54" height="54" fill="white" transform="translate(23 23)"/>
</clipPath>
</defs>
</svg>
