<svg width="100" height="100" viewBox="0 0 100 100" fill="none" xmlns="http://www.w3.org/2000/svg">
<circle opacity="0.1" cx="50" cy="50" r="50" fill="white"/>
<path d="M42.4062 66.875H30.5938C30.37 66.875 30.1554 66.9639 29.9971 67.1221C29.8389 67.2804 29.75 67.495 29.75 67.7188V71.0938C29.75 71.3175 29.8389 71.5321 29.9971 71.6904C30.1554 71.8486 30.37 71.9375 30.5938 71.9375H42.4062C42.63 71.9375 42.8446 71.8486 43.0029 71.6904C43.1611 71.5321 43.25 71.3175 43.25 71.0938V67.7188C43.25 67.495 43.1611 67.2804 43.0029 67.1221C42.8446 66.9639 42.63 66.875 42.4062 66.875ZM41.5625 70.25H31.4375V68.5625H41.5625V70.25Z" fill="white"/>
<path d="M55.0623 65.1875C54.2908 65.1886 53.543 65.4549 52.9445 65.9418C52.4493 65.54 51.8504 65.2867 51.2171 65.2112C50.5839 65.1358 49.9422 65.2413 49.3665 65.5155C48.7907 65.7898 48.3044 66.2216 47.964 66.7608C47.6236 67.3001 47.4429 67.9248 47.4429 68.5625C47.4429 69.2003 47.6236 69.8249 47.964 70.3642C48.3044 70.9035 48.7907 71.3352 49.3665 71.6095C49.9422 71.8837 50.5839 71.9893 51.2171 71.9138C51.8504 71.8384 52.4493 71.5851 52.9445 71.1832C53.3643 71.5238 53.8598 71.7587 54.3892 71.8679C54.9186 71.9771 55.4666 71.9576 55.9869 71.8109C56.5072 71.6642 56.9847 71.3947 57.3791 71.025C57.7735 70.6553 58.0734 70.1963 58.2535 69.6866C58.4335 69.1768 58.4885 68.6313 58.4137 68.0959C58.339 67.5605 58.1367 67.0509 57.824 66.6099C57.5112 66.169 57.0971 65.8096 56.6165 65.5621C56.1359 65.3146 55.6029 65.1861 55.0623 65.1875ZM50.8436 70.25C50.5098 70.25 50.1836 70.151 49.9061 69.9656C49.6285 69.7802 49.4123 69.5166 49.2845 69.2083C49.1568 68.8999 49.1234 68.5606 49.1885 68.2333C49.2536 67.906 49.4143 67.6053 49.6503 67.3693C49.8863 67.1333 50.187 66.9726 50.5144 66.9074C50.8417 66.8423 51.181 66.8757 51.4894 67.0035C51.7977 67.1312 52.0613 67.3475 52.2467 67.625C52.4321 67.9025 52.5311 68.2288 52.5311 68.5625C52.5311 69.0101 52.3533 69.4393 52.0368 69.7558C51.7204 70.0722 51.2911 70.25 50.8436 70.25ZM55.0623 70.25C54.659 70.2511 54.2692 70.1053 53.9655 69.84C54.1337 69.4351 54.2203 69.001 54.2203 68.5625C54.2203 68.1241 54.1337 67.69 53.9655 67.2851C54.2692 67.0197 54.659 66.874 55.0623 66.875C55.5099 66.875 55.9391 67.0528 56.2556 67.3693C56.572 67.6857 56.7498 68.115 56.7498 68.5625C56.7498 69.0101 56.572 69.4393 56.2556 69.7558C55.9391 70.0722 55.5099 70.25 55.0623 70.25Z" fill="white"/>
<path d="M58.4375 28.9062H60.125C60.3488 28.9062 60.5634 28.8174 60.7216 28.6591C60.8799 28.5009 60.9688 28.2863 60.9688 28.0625C60.9688 27.8387 60.8799 27.6241 60.7216 27.4659C60.5634 27.3076 60.3488 27.2188 60.125 27.2188H58.4375C58.2137 27.2188 57.9991 27.3076 57.8409 27.4659C57.6826 27.6241 57.5938 27.8387 57.5938 28.0625C57.5938 28.2863 57.6826 28.5009 57.8409 28.6591C57.9991 28.8174 58.2137 28.9062 58.4375 28.9062Z" fill="white"/>
<path d="M71.0938 24.6875H47.4688C46.3503 24.6888 45.278 25.1337 44.4871 25.9246C43.6962 26.7155 43.2513 27.7878 43.25 28.9062V51.6875H28.9062C27.7878 51.6888 26.7155 52.1337 25.9246 52.9246C25.1337 53.7155 24.6888 54.7878 24.6875 55.9062V71.0938C24.6888 72.2122 25.1337 73.2845 25.9246 74.0754C26.7155 74.8663 27.7878 75.3112 28.9062 75.3125H71.0938C72.2122 75.3112 73.2845 74.8663 74.0754 74.0754C74.8663 73.2845 75.3112 72.2122 75.3125 71.0938V28.9062C75.3112 27.7878 74.8663 26.7155 74.0754 25.9246C73.2845 25.1337 72.2122 24.6888 71.0938 24.6875ZM47.4688 26.375H71.0938C71.7651 26.375 72.4089 26.6417 72.8836 27.1164C73.3583 27.5911 73.625 28.2349 73.625 28.9062V29.75H44.9375V28.9062C44.9375 28.2349 45.2042 27.5911 45.6789 27.1164C46.1536 26.6417 46.7974 26.375 47.4688 26.375ZM44.9375 31.4375H73.625V66.875H61.8125V55.9062C61.8112 54.7878 61.3663 53.7155 60.5754 52.9246C59.7845 52.1337 58.7122 51.6888 57.5938 51.6875H44.9375V31.4375ZM26.375 58.4375H60.125V60.125H26.375V58.4375ZM28.9062 53.375H57.5938C58.2651 53.375 58.9089 53.6417 59.3836 54.1164C59.8583 54.5911 60.125 55.2349 60.125 55.9062V56.75H26.375V55.9062C26.375 55.2349 26.6417 54.5911 27.1164 54.1164C27.5911 53.6417 28.2349 53.375 28.9062 53.375ZM26.375 71.0938V61.8125H60.125V71.0938C60.125 71.7651 59.8583 72.4089 59.3836 72.8836C58.9089 73.3583 58.2651 73.625 57.5938 73.625H28.9062C28.2349 73.625 27.5911 73.3583 27.1164 72.8836C26.6417 72.4089 26.375 71.7651 26.375 71.0938ZM71.0938 73.625H60.9468C61.5052 72.899 61.8094 72.0096 61.8125 71.0938V68.5625H73.625V71.0938C73.625 71.7651 73.3583 72.4089 72.8836 72.8836C72.4089 73.3583 71.7651 73.625 71.0938 73.625Z" fill="white"/>
<path d="M66.875 46.625V38.1875C66.875 37.9637 66.7861 37.7491 66.6279 37.5909C66.4696 37.4326 66.255 37.3438 66.0312 37.3438H63.5C63.5 36.2249 63.0555 35.1518 62.2644 34.3606C61.4732 33.5695 60.4001 33.125 59.2812 33.125C58.1624 33.125 57.0893 33.5695 56.2981 34.3606C55.507 35.1518 55.0625 36.2249 55.0625 37.3438H52.5312C52.3075 37.3438 52.0929 37.4326 51.9346 37.5909C51.7764 37.7491 51.6875 37.9637 51.6875 38.1875V46.625C51.6888 47.7435 52.1337 48.8157 52.9246 49.6066C53.7155 50.3975 54.7878 50.8424 55.9062 50.8438H62.6562C63.7747 50.8424 64.847 50.3975 65.6379 49.6066C66.4288 48.8157 66.8737 47.7435 66.875 46.625ZM59.2812 34.8125C59.9526 34.8125 60.5964 35.0792 61.0711 35.5539C61.5458 36.0286 61.8125 36.6724 61.8125 37.3438H56.75C56.75 36.6724 57.0167 36.0286 57.4914 35.5539C57.9661 35.0792 58.6099 34.8125 59.2812 34.8125ZM53.375 46.625V39.0312H55.0625V40.7188C55.0625 40.9425 55.1514 41.1571 55.3096 41.3154C55.4679 41.4736 55.6825 41.5625 55.9062 41.5625C56.13 41.5625 56.3446 41.4736 56.5029 41.3154C56.6611 41.1571 56.75 40.9425 56.75 40.7188V39.0312H61.8125V40.7188C61.8125 40.9425 61.9014 41.1571 62.0596 41.3154C62.2179 41.4736 62.4325 41.5625 62.6562 41.5625C62.88 41.5625 63.0946 41.4736 63.2529 41.3154C63.4111 41.1571 63.5 40.9425 63.5 40.7188V39.0312H65.1875V46.625C65.1875 47.2963 64.9208 47.9402 64.4461 48.4149C63.9714 48.8896 63.3276 49.1562 62.6562 49.1562H55.9062C55.2349 49.1562 54.5911 48.8896 54.1164 48.4149C53.6417 47.9402 53.375 47.2963 53.375 46.625Z" fill="white"/>
</svg>
