<svg width="100" height="100" viewBox="0 0 100 100" fill="none" xmlns="http://www.w3.org/2000/svg">
<circle opacity="0.1" cx="50" cy="50" r="50" fill="white"/>
<g clip-path="url(#clip0)">
<path d="M69.4099 23H67.0882C66.0677 23 66.0677 24.5823 67.0882 24.5823H69.4099C71.8076 24.5823 73.7583 26.5259 73.7583 28.9149V47.224C73.7583 49.6131 71.8077 51.5567 69.4099 51.5567H66.7767C66.603 51.5567 66.4341 51.6139 66.296 51.7195L61.4642 55.4154V52.3479C61.4642 51.9109 61.1101 51.5567 60.6731 51.5567H51.0445C50.256 51.5567 49.4982 51.3486 48.8299 50.9529V42.072C48.8299 40.4085 47.9826 38.9388 46.6961 38.0693V28.9149C46.6961 26.5259 48.6468 24.5823 51.0445 24.5823H62.1305C63.1509 24.5823 63.1509 23 62.1305 23H51.0445C47.7743 23 45.1138 25.6534 45.1138 28.9149V37.374C44.7516 37.2875 44.3741 37.2403 43.9858 37.2403H29.5032C26.8323 37.2403 24.6592 39.4078 24.6592 42.072V43.7803C24.6592 44.8008 26.2414 44.8008 26.2414 43.7803V42.072C26.2414 40.2803 27.7046 38.8226 29.5032 38.8226H43.9859C45.7845 38.8226 47.2477 40.2803 47.2477 42.072V51.2679C47.2382 51.3377 47.2387 51.4081 47.2477 51.4774V56.5103C47.2477 56.6097 47.2417 56.7088 47.2328 56.8073H45.6012C43.8035 56.8073 42.3048 58.1049 41.994 59.8102C41.9221 59.8373 41.853 59.8752 41.7889 59.9246L38.2505 62.6567V60.5508C38.2505 60.1139 37.8964 59.7597 37.4593 59.7597H29.5032C27.7046 59.7597 26.2414 58.302 26.2414 56.5103V48.5271C26.2414 47.5067 24.6592 47.5067 24.6592 48.5271V56.5104C24.6592 59.1746 26.8323 61.3421 29.5032 61.3421H36.6683V64.2671C36.6683 64.9017 37.4389 65.2824 37.943 64.8934L41.934 61.8119V70.7121C41.934 72.7295 43.5792 74.3706 45.6013 74.3706H50.4562V76.2167C50.4562 76.8511 51.2268 77.2322 51.7308 76.8429L54.9329 74.3706H55.8789C57.901 74.3706 59.5462 72.7294 59.5462 70.7121V69.3075C59.5462 68.287 57.964 68.287 57.964 69.3075V70.7121C57.964 71.857 57.0286 72.7883 55.8789 72.7883H54.663C54.488 72.7883 54.3179 72.8464 54.1795 72.9532L52.0384 74.6063V73.5794C52.0384 73.1424 51.6843 72.7882 51.2473 72.7882H45.6012C44.4516 72.7882 43.5161 71.8568 43.5161 70.712V60.4659C43.5161 59.321 44.4515 58.3897 45.6012 58.3897H55.8789C57.0285 58.3897 57.964 59.3211 57.964 60.4659V64.3497C57.964 65.3702 59.5462 65.3702 59.5462 64.3497V60.466C59.5462 58.4486 57.901 56.8075 55.8789 56.8075H48.8209C48.8269 56.7087 48.83 52.7128 48.83 52.7128C49.5276 52.9933 50.2754 53.1391 51.0446 53.1391H59.8821V57.0167C59.8821 57.6497 60.6494 58.0308 61.1539 57.6451L67.0448 53.1391H69.41C72.6801 53.1391 75.3407 50.4856 75.3407 47.2241V28.9149C75.3406 25.6534 72.68 23 69.4099 23V23Z" fill="white"/>
<path d="M50.7305 62.4717C50.0917 61.9458 49.2418 61.7383 48.3893 61.9456C47.2968 62.2109 46.1943 63.2322 46.1943 64.9156C46.1943 65.9634 46.5767 66.8729 47.3633 67.6961C48.0058 68.3685 48.933 69.008 50.3695 69.7696C50.4854 69.8311 50.6127 69.8618 50.7401 69.8618C50.8674 69.8618 50.9947 69.8311 51.1106 69.7696C53.6167 68.441 55.2857 67.1071 55.2857 64.9156C55.2857 63.223 54.1441 62.2122 53.0127 61.9612C52.1627 61.7726 51.3387 61.9728 50.7305 62.4717ZM53.7033 64.9156C53.7033 66.0977 52.9193 66.9718 50.74 68.1715C48.5607 66.9717 47.7765 66.0976 47.7765 64.9156C47.7765 64.0361 48.2858 63.599 48.7625 63.4831C48.8503 63.4618 48.9444 63.4498 49.0411 63.4498C49.3997 63.4498 49.7939 63.6154 50.0369 64.0866C50.1754 64.3547 50.4554 64.521 50.7557 64.5148C51.0573 64.5088 51.3293 64.3317 51.4568 64.0583C51.7128 63.5096 52.2512 63.4131 52.6698 63.506C53.1696 63.6167 53.7033 64.0453 53.7033 64.9156Z" fill="white"/>
<path d="M31.4337 50.4783C30.9967 50.4783 30.6426 50.8325 30.6426 51.2695C30.6426 51.7064 30.9967 52.0606 31.4337 52.0606H33.7657L33.3301 54.6955C33.2588 55.1265 33.5506 55.5338 33.9816 55.6051C34.0253 55.6123 34.0687 55.6158 34.1115 55.6158C34.4917 55.6158 34.827 55.341 34.8912 54.9536L35.3694 52.0607H37.2779L36.8423 54.6956C36.771 55.1266 37.0628 55.5339 37.4938 55.6052C37.5375 55.6124 37.5809 55.6159 37.6237 55.6159C38.0039 55.6159 38.3392 55.3411 38.4034 54.9537L38.8816 52.0608H42.0559C42.493 52.0608 42.8471 51.7066 42.8471 51.2697C42.8471 50.8328 42.493 50.4785 42.0559 50.4785H39.1432L39.4623 48.5486H42.0559C42.493 48.5486 42.8471 48.1944 42.8471 47.7575C42.8471 47.3206 42.493 46.9663 42.0559 46.9663H39.7239L40.1596 44.3315C40.2309 43.9005 39.9391 43.4932 39.5081 43.4219C39.0766 43.3504 38.6698 43.6423 38.5985 44.0733L38.1202 46.9662H36.2117L36.6474 44.3314C36.7187 43.9003 36.4269 43.4931 35.9959 43.4218C35.5638 43.3502 35.1577 43.6422 35.0863 44.0732L34.608 46.9661H31.4337C30.9967 46.9661 30.6426 47.3203 30.6426 47.7573C30.6426 48.1942 30.9967 48.5484 31.4337 48.5484H34.3464L34.0273 50.4783H31.4337ZM35.9502 48.5484H37.8587L37.5397 50.4783H35.6311L35.9502 48.5484Z" fill="white"/>
<path d="M62.2042 28.845C61.1996 28.5886 60.176 29.3823 60.176 30.4202C60.176 31.5543 59.7627 32.6472 59.0129 33.4971L56.8331 35.9636C56.692 35.7471 56.4481 35.6037 56.1704 35.6037H51.9152C51.4781 35.6037 51.124 35.9579 51.124 36.3948V45.9691C51.124 46.406 51.4781 46.7602 51.9152 46.7602H56.1704C56.4901 46.7602 56.7648 46.5703 56.8896 46.2975C57.7511 46.8238 58.7494 47.1084 59.7651 47.1084H67.2852C68.4344 47.1084 69.3824 46.1113 69.3285 44.9651C69.3045 44.4575 69.3307 37.6419 69.3307 37.4905C69.3307 36.3627 68.4131 35.445 67.2876 35.445L63.3769 35.4333L63.5389 35.0498C64.2788 33.2974 64.157 31.2654 63.2133 29.6138C62.9931 29.2279 62.6345 28.9551 62.2042 28.845C62.6345 28.9551 61.7736 28.7351 62.2042 28.845C62.6345 28.9551 61.1998 28.5886 62.2042 28.845ZM55.3793 45.178H52.7063V37.186H55.3793V45.178ZM67.2852 37.0271C67.5407 37.0271 67.7485 37.2349 67.7485 37.4904C67.7485 37.6409 67.7469 38.0495 67.7448 38.6034C67.7331 41.6616 67.7253 44.5579 67.7479 45.0394C67.7561 45.2131 67.6716 45.3289 67.6206 45.3825C67.5322 45.4751 67.4131 45.5261 67.2852 45.5261H59.7651C58.8687 45.5261 57.9914 45.2154 57.2945 44.6514L56.9615 44.3818V38.2077L60.1989 34.5443C61.2045 33.4047 61.7583 31.94 61.7583 30.4201C61.7583 30.3754 61.8194 30.3638 61.8396 30.3986C62.5402 31.6246 62.6305 33.1332 62.0813 34.4341L61.4569 35.9129C61.3539 36.1569 61.3798 36.4361 61.5257 36.657C61.6718 36.8779 61.9186 37.011 62.1833 37.0118L67.2852 37.0271Z" fill="white"/>
</g>
<defs>
<clipPath id="clip0">
<rect width="54" height="54" fill="white" transform="translate(23 23)"/>
</clipPath>
</defs>
</svg>
