<svg width="100" height="100" viewBox="0 0 100 100" fill="none" xmlns="http://www.w3.org/2000/svg">
<circle opacity="0.05" cx="50" cy="50" r="50" fill="white"/>
<g clip-path="url(#clip0)">
<path d="M74.1749 43.5382C76.4069 40.8089 77.383 37.2644 76.8632 33.7772C75.8545 26.8942 69.4571 22.132 62.574 23.1407C59.4708 23.5955 56.6487 25.1916 54.6601 27.6169C53.0903 29.6219 50.4881 30.5161 48.0175 29.8994C45.9401 29.3223 43.7681 29.1668 41.6296 29.4424C34.3996 30.4186 28.6942 36.0719 27.6516 43.2926C27.2041 46.5161 27.7443 49.7996 29.2009 52.7099C25.7265 52.76 22.9505 55.6173 23.0007 59.0916C23.0458 62.2183 25.3803 64.8373 28.4812 65.2402L29.452 75.1973C29.452 76.1911 30.2575 76.9967 31.2514 76.9967H36.5012C37.0265 76.9963 37.5255 76.7662 37.867 76.3669C38.2224 75.9426 38.3678 75.3808 38.2628 74.8374L35.857 65.3004H36.3069C37.3019 65.3058 38.2957 65.3774 39.2813 65.5146C42.5105 72.5152 49.5166 76.9982 57.2261 76.9967C57.8199 76.9967 58.4197 76.9701 59.0255 76.9166C68.5705 75.9743 76.0921 68.3699 76.9298 58.8153C77.2825 54.5753 76.2492 50.3353 73.9851 46.7331C73.3567 45.7376 73.4331 44.4523 74.1749 43.5382ZM28.4038 63.411C25.9689 62.9167 24.396 60.5421 24.8904 58.1072C25.2498 56.3369 26.6335 54.9533 28.4038 54.5939V63.411ZM36.5012 75.1973L31.2469 75.1073L30.2932 65.3004H33.9991L36.5012 75.1973ZM30.2032 63.501V54.5039H32.0026V63.501H30.2032ZM36.3042 63.501H33.8021V54.5039H36.3042C38.9152 54.5048 41.5092 54.0837 43.9859 53.2569L48.1975 51.8533V66.1516L43.9859 64.748C41.5092 63.9213 38.9152 63.5001 36.3042 63.501ZM75.1304 58.6705C74.3356 68.5607 65.6738 75.9339 55.7836 75.1393C49.7744 74.6563 44.4081 71.1918 41.4946 65.914C42.1406 66.0679 42.783 66.2433 43.4173 66.4539L53.3141 69.7522C53.4049 69.7826 53.5 69.7983 53.5958 69.799C54.0926 69.799 54.4955 69.3962 54.4955 68.8993V64.4007C56.483 64.4007 58.0943 62.7895 58.0943 60.8019V57.203C58.0943 55.2154 56.483 53.6042 54.4955 53.6042V49.1056C54.4956 48.6087 54.0928 48.2058 53.596 48.2057C53.4993 48.2057 53.4032 48.2212 53.3114 48.2518L43.4146 51.5501C41.122 52.3149 38.721 52.7047 36.3042 52.7045H31.2514C29.6338 49.9357 28.994 46.7036 29.4349 43.5274C30.5222 35.6568 37.784 30.1578 45.6545 31.2449C46.2882 31.3324 46.9153 31.4622 47.5317 31.6332C50.6896 32.443 54.0282 31.3168 56.0502 28.7595C59.8169 24.1414 66.6142 23.4512 71.2324 27.2178C75.8506 30.9845 76.5408 37.7818 72.774 42.4C71.546 43.9119 71.4176 46.038 72.4546 47.6868C74.5123 50.9617 75.4512 54.8161 75.1304 58.6705ZM49.9969 66.7517V51.2532L52.696 50.3535V67.6514L49.9969 66.7517ZM54.4955 62.6013V55.4036C55.4893 55.4036 56.2949 56.2092 56.2949 57.203V60.8019C56.2949 61.7957 55.4892 62.6013 54.4955 62.6013Z" fill="white"/>
<path d="M58.9625 67.7795L57.2178 68.2157L58.1173 71.8143L59.8621 71.3781L58.9625 67.7795Z" fill="white"/>
<path d="M60.2949 65.3934L59.4902 67.0028L63.0889 68.8021L63.8936 67.1927L60.2949 65.3934Z" fill="white"/>
<path d="M39.2004 59.9008H35.6016V61.7002H39.2004V59.9008Z" fill="white"/>
<path d="M39.2004 56.3019H35.6016V58.1014H39.2004V56.3019Z" fill="white"/>
<path d="M72.5978 55.6741L72.2145 55.289C71.3029 54.3833 69.8803 54.2427 68.8091 54.9525L67.8365 55.6012L66.8639 54.9525C65.7928 54.2421 64.3698 54.3826 63.4585 55.289L63.0735 55.6741C62.0198 56.7281 62.0198 58.4366 63.0735 59.4906L67.1995 63.6158C67.5509 63.9671 68.1204 63.9671 68.4717 63.6158L72.5978 59.4906C73.6515 58.4366 73.6515 56.7281 72.5978 55.6741ZM71.3272 58.2178C71.327 58.218 71.3267 58.2182 71.3265 58.2185L67.8365 61.7075L64.3474 58.2221C63.9962 57.8707 63.9962 57.3012 64.3474 56.9499L64.7316 56.5657C65.0349 56.2623 65.5102 56.2152 65.8671 56.4532L67.3381 57.4339C67.6404 57.6357 68.0345 57.6357 68.3368 57.4339L69.8087 56.4532C70.1652 56.2155 70.6399 56.2621 70.9432 56.5648V56.5612L71.3265 56.9454C71.6781 57.2966 71.6784 57.8662 71.3272 58.2178Z" fill="white"/>
<path d="M58.1233 47.0876L57.2227 50.6862L58.9674 51.1229L59.8681 47.5243L58.1233 47.0876Z" fill="white"/>
<path d="M63.0894 50.0988L59.4907 51.8981L60.2954 53.5075L63.8941 51.7082L63.0894 50.0988Z" fill="white"/>
<path d="M46.398 39.2074H45.4983C45.0015 39.2074 44.5986 38.8045 44.5986 38.3077V35.6085C44.5986 34.1178 43.3902 32.9094 41.8995 32.9094C40.4088 32.9094 39.2003 34.1178 39.2003 35.6085V38.3077C39.2003 38.8045 38.7975 39.2074 38.3006 39.2074C38.3006 38.7105 37.8978 38.3077 37.4009 38.3077H33.8021C33.3052 38.3077 32.9023 38.7105 32.9023 39.2074V49.1042C32.9023 49.6011 33.3052 50.004 33.8021 50.004H37.4009C37.8978 50.004 38.3006 49.6011 38.3006 49.1042H46.398C47.8888 49.1042 49.0972 47.8958 49.0972 46.4051V41.9065C49.0972 40.4159 47.8888 39.2074 46.398 39.2074ZM36.5012 48.2045H34.7018V40.1071H36.5012V48.2045ZM47.2978 46.4051C47.2978 46.902 46.8949 47.3048 46.398 47.3048H38.3006V41.0068C39.7913 41.0068 40.9998 39.7984 40.9998 38.3077V35.6085C40.9998 35.1117 41.4026 34.7088 41.8995 34.7088C42.3963 34.7088 42.7992 35.1117 42.7992 35.6085V38.3077C42.7992 39.7984 44.0076 41.0068 45.4983 41.0068H46.398C46.8949 41.0068 47.2978 41.4097 47.2978 41.9065V46.4051Z" fill="white"/>
<path d="M68.7401 35.1095C68.6742 35.0107 68.5895 34.9259 68.4907 34.86L63.0924 31.2612C62.6791 30.9854 62.1204 31.0969 61.8446 31.5103C61.746 31.6582 61.6934 31.8319 61.6934 32.0098V39.2075C61.6932 39.5393 61.8758 39.8443 62.1684 40.001C62.4612 40.1577 62.8163 40.1403 63.0924 39.956L68.4907 36.3572C68.9041 36.0815 69.0158 35.5229 68.7401 35.1095ZM63.4928 37.5259V33.6913L66.3719 35.6086L63.4928 37.5259Z" fill="white"/>
<path d="M64.3923 27.5111C59.9203 27.5111 56.2949 31.1364 56.2949 35.6085C56.2999 40.0785 59.9223 43.701 64.3923 43.7059C68.8645 43.7059 72.4898 40.0805 72.4898 35.6085C72.4898 31.1365 68.8644 27.5111 64.3923 27.5111ZM64.3923 41.9065C60.914 41.9065 58.0943 39.0868 58.0943 35.6085C58.0983 32.1319 60.9157 29.3145 64.3923 29.3105C67.8706 29.3105 70.6903 32.1302 70.6903 35.6085C70.6903 39.0868 67.8706 41.9065 64.3923 41.9065Z" fill="white"/>
<path d="M23.9053 47.3048H25.7047C25.7047 35.0957 32.9447 27.5111 44.5987 27.5111V25.7117C31.8344 25.7117 23.9053 33.9891 23.9053 47.3048Z" fill="white"/>
</g>
<defs>
<clipPath id="clip0">
<rect width="54" height="54" fill="white" transform="translate(23 23)"/>
</clipPath>
</defs>
</svg>
