<svg width="100" height="100" viewBox="0 0 100 100" fill="none" xmlns="http://www.w3.org/2000/svg">
<circle opacity="0.05" cx="50" cy="50" r="50" fill="white"/>
<g clip-path="url(#clip0)">
<path d="M74.9336 45.7215H73.9695C73.0945 40.8543 70.7659 36.3735 67.1948 32.8028C62.5739 28.1815 56.4295 25.6367 49.8946 25.6367C43.3596 25.6367 37.2152 28.1815 32.5944 32.8028C28.9977 36.3995 26.6605 40.919 25.8003 45.8274H24.8556C23.7741 45.8274 22.8945 46.707 22.8945 47.7885V54.915C22.8945 55.9961 23.7741 56.8761 24.8556 56.8761H26.3853C27.6917 61.4129 30.2967 65.5225 33.9593 68.6689C34.2909 68.9535 34.7907 68.916 35.0758 68.5844C35.3609 68.2523 35.323 67.7526 34.9913 67.4675C34.0438 66.6538 33.1724 65.7705 32.381 64.8295C33.5914 64.3195 34.8282 63.8989 36.074 63.554C36.6656 64.598 37.3294 65.6053 38.0656 66.5673C39.6785 68.6754 41.4999 70.5302 43.4412 72.0591C41.8283 71.5866 40.2685 70.9373 38.7973 70.1195C38.4149 69.9073 37.9329 70.0449 37.7207 70.4272C37.5082 70.8095 37.6458 71.2916 38.0281 71.5042C41.6375 73.5093 45.7409 74.5693 49.8946 74.5693C56.4295 74.5693 62.5735 72.0245 67.1948 67.4032C70.1632 64.4353 72.2721 60.8374 73.4026 56.9124H74.9336C76.015 56.9124 76.8946 56.0328 76.8946 54.9513V47.6826C76.8946 46.6015 76.015 45.7215 74.9336 45.7215ZM72.3574 45.7215H66.8491C66.7832 45.3112 66.7103 44.9008 66.6254 44.4909C66.1549 42.2196 65.4195 40.0509 64.4312 38.0038C64.577 37.9638 64.7237 37.9247 64.8687 37.8835C65.8768 37.5951 67.1602 37.2029 68.4209 36.6636C70.3898 39.3666 71.7258 42.4475 72.3574 45.7215ZM65.2617 45.8274H57.0797C57.0525 45.4303 57.0228 45.0331 56.9878 44.6368C56.8308 42.8652 56.5993 41.1501 56.301 39.51C58.5706 39.2743 60.7628 38.9056 62.866 38.4054C63.8692 40.4197 64.6087 42.5628 65.0747 44.8123C65.1447 45.1501 65.2053 45.4888 65.2617 45.8274ZM66.075 33.9222C66.5414 34.3886 66.9843 34.8722 67.4049 35.3703C66.3502 35.7939 65.2889 36.116 64.4332 36.3607C64.1852 36.4316 63.9356 36.4996 63.6851 36.5663C63.1845 35.669 62.6345 34.7968 62.0322 33.9531C60.4538 31.7432 58.5822 29.8085 56.4452 28.1675C60.0456 29.2379 63.3448 31.1919 66.075 33.9222ZM52.3364 27.3497C55.6991 29.2399 58.5278 31.7704 60.7435 34.8735C61.2263 35.5504 61.6733 36.247 62.087 36.9606C60.1313 37.4068 58.0964 37.7376 55.9916 37.9506C55.0749 33.6828 53.6865 30.0067 51.9475 27.3123C52.0773 27.3234 52.2071 27.3357 52.3364 27.3497ZM49.8946 27.2204C49.9139 27.2204 49.9329 27.2208 49.9523 27.2208C51.8762 29.7599 53.4146 33.5526 54.4054 38.0882C52.7138 38.2102 50.981 38.26 49.2099 38.2341C48.0077 38.2168 46.721 38.1793 45.3817 38.0977C46.3725 33.558 47.9117 29.7615 49.8369 27.2208C49.8563 27.2208 49.8752 27.2204 49.8946 27.2204ZM47.8416 27.3123C46.0981 30.0128 44.7077 33.7001 43.791 37.9803C41.8031 37.8072 39.7275 37.5209 37.6511 37.0479C38.0788 36.3035 38.5427 35.5776 39.0457 34.8731C41.2614 31.7704 44.0901 29.2399 47.4527 27.3493C47.5821 27.3357 47.7119 27.3234 47.8416 27.3123ZM43.482 39.5434C43.1866 41.1732 42.9571 42.8772 42.8014 44.6368C42.7664 45.0331 42.7367 45.4303 42.7099 45.8274H34.5266C34.5826 45.4888 34.6444 45.1501 34.7145 44.8123C35.1734 42.5958 35.8993 40.4831 36.8799 38.4944C39.1153 39.0308 41.3487 39.351 43.482 39.5434ZM33.7142 33.9222C36.4444 31.1919 39.7436 29.2379 43.344 28.1675C41.2066 29.8085 39.3349 31.7432 37.757 33.9531C37.1365 34.822 36.5717 35.7218 36.0596 36.6479C34.8183 36.3039 33.5856 35.8841 32.3797 35.3757C32.8016 34.8759 33.2461 34.3906 33.7142 33.9222ZM31.3675 36.6652C32.6636 37.2342 33.9877 37.7005 35.3197 38.0833C34.3507 40.1074 33.6281 42.2489 33.1637 44.4909C33.0719 44.9359 32.9924 45.3816 32.9227 45.8274H27.4112C28.0341 42.5142 29.378 39.3967 31.3675 36.6652ZM24.8556 55.2924C24.6475 55.2924 24.4782 55.1231 24.4782 54.9146V47.7881C24.4782 47.58 24.6475 47.4107 24.8556 47.4107H47.7127C48.1502 47.4107 48.5045 47.0564 48.5045 46.6188C48.5045 46.1817 48.1502 45.827 47.7127 45.827H44.2965C44.3212 45.4768 44.348 45.1262 44.3789 44.7764C44.5359 43.0045 44.7682 41.2943 45.0681 39.6649C46.5126 39.7576 47.8969 39.7988 49.1872 39.8173C49.4995 39.8219 49.811 39.8243 50.1216 39.8243C51.6838 39.8243 53.2169 39.7658 54.719 39.6521C55.0197 41.2852 55.2529 42.9999 55.4103 44.7764C55.4412 45.1262 55.4684 45.4768 55.4931 45.827H52.6566C52.2194 45.827 51.8647 46.1817 51.8647 46.6188C51.8647 47.0564 52.2194 47.4107 52.6566 47.4107H64.9387V55.292H24.8556V55.2924ZM64.7488 56.8757C64.2927 58.578 63.6616 60.2285 62.8611 61.799C60.7616 61.3 58.5744 60.9305 56.3088 60.6948C56.5362 59.4568 56.7229 58.1805 56.8671 56.8761H64.7488V56.8757ZM55.2756 56.8757C55.1326 58.1335 54.9489 59.3629 54.726 60.5543C52.9231 60.4176 51.0758 60.3607 49.1872 60.3883C47.8944 60.4068 46.5076 60.448 45.0607 60.5412C44.8391 59.3538 44.6562 58.129 44.5136 56.8757H55.2756ZM31.3724 63.5388C29.9016 61.5118 28.7761 59.2607 28.0374 56.8757H33.4064C33.8612 58.6868 34.4998 60.4456 35.3193 62.1228C33.989 62.5051 32.6665 62.9706 31.3724 63.5388ZM35.042 56.8757H42.9209C43.0638 58.1693 43.2492 59.4354 43.4742 60.6635C41.3442 60.8555 39.1145 61.1756 36.8832 61.7104C36.1041 60.1667 35.4894 58.5459 35.042 56.8757ZM47.4449 72.8514C44.4823 71.1824 41.6754 68.6792 39.3234 65.6049C38.7211 64.8184 38.1719 63.9986 37.6725 63.1527C39.7403 62.6831 41.8068 62.3984 43.7864 62.2258C44.0996 63.664 44.4708 65.0409 44.8984 66.3349C45.5296 68.242 46.5204 70.7861 47.8528 72.8926C47.7168 72.8806 47.5809 72.8662 47.4449 72.8514ZM49.8946 72.9857C49.8752 72.9857 49.8563 72.9848 49.8369 72.9848C48.5902 71.3332 47.4045 68.8678 46.4022 65.8377C46.0128 64.6606 45.6729 63.4115 45.3821 62.1079C46.7215 62.0268 48.0077 61.9889 49.2099 61.9716C50.981 61.9464 52.7134 61.9963 54.405 62.1182C54.1146 63.4181 53.7751 64.6639 53.387 65.8377C52.3851 68.8678 51.1989 71.3332 49.9523 72.9848C49.9329 72.9853 49.9139 72.9857 49.8946 72.9857ZM51.9347 72.895C53.2679 70.7881 54.2596 68.2429 54.8904 66.3349C55.3155 65.0499 55.6843 63.6838 55.9957 62.2563C58.0915 62.4684 60.1172 62.7968 62.0647 63.2401C61.5794 64.055 61.0471 64.8456 60.4658 65.6049C58.1113 68.682 55.3015 71.1873 52.336 72.8563C52.2025 72.8703 52.0686 72.8831 51.9347 72.895ZM66.075 66.2834C63.3163 69.0421 59.9768 71.0081 56.3331 72.0706C58.2798 70.5397 60.1065 68.6808 61.7236 66.5673C62.4409 65.6304 63.0885 64.6499 63.6682 63.6348C63.9244 63.7032 64.1799 63.7728 64.4332 63.8449C65.2881 64.0896 66.3486 64.4118 67.4028 64.8349C66.9822 65.333 66.5414 65.8175 66.075 66.2834ZM68.4184 63.5413C67.1585 63.0028 65.876 62.6106 64.8687 62.3226C64.7237 62.281 64.577 62.2423 64.4312 62.2023C65.2638 60.5127 65.9119 58.7387 66.3733 56.9124H71.7473C71.0123 59.2825 69.8925 61.5176 68.4184 63.5413ZM75.311 54.915C75.311 55.1231 75.1416 55.2924 74.9336 55.2924H66.522V47.4107H74.9336C75.1416 47.4107 75.311 47.5804 75.311 47.7885V54.915Z" fill="white"/>
<path d="M43.2224 51.0518C43.2224 51.2623 43.0411 51.4494 42.8306 51.4494C42.6024 51.4494 42.4326 51.2623 42.4326 51.0518C42.4326 50.8351 42.6024 50.6538 42.8306 50.6538C43.0411 50.6538 43.2224 50.8351 43.2224 51.0518ZM43.2224 52.7599C43.2224 52.9708 43.0411 53.1579 42.8306 53.1579C42.6024 53.1579 42.4326 52.9708 42.4326 52.7599C42.4326 52.5436 42.6024 52.3623 42.8306 52.3623C43.0411 52.3623 43.2224 52.5436 43.2224 52.7599Z" fill="white"/>
<path d="M60.5246 53.0524C60.4838 53.1521 60.3553 53.1871 60.2263 53.1871C60.0801 53.1871 59.9516 53.1402 59.9161 53.0524L59.4658 51.7769L59.0209 53.0467C58.9858 53.1402 58.8454 53.1871 58.6991 53.1871C58.5763 53.1871 58.4478 53.1521 58.4066 53.0467L57.5056 50.7358C57.4821 50.6889 57.4763 50.6538 57.4763 50.6246C57.4763 50.4433 57.7688 50.3144 57.9678 50.3144C58.0671 50.3144 58.1549 50.3551 58.1845 50.4371L58.7696 52.0987L59.2083 50.6534C59.2491 50.5191 59.3484 50.5014 59.4654 50.5014C59.5766 50.5014 59.6821 50.5191 59.7229 50.6534L60.1559 52.1044L60.7471 50.4371C60.7759 50.3609 60.8583 50.3144 60.9634 50.3144C61.1504 50.3144 61.4491 50.4429 61.4491 50.6304C61.4491 50.6654 61.4434 50.7062 61.4256 50.7358L60.5246 53.0524Z" fill="white"/>
<path d="M56.1184 53.0524C56.0776 53.1521 55.9491 53.1871 55.8201 53.1871C55.6738 53.1871 55.5453 53.1402 55.5099 53.0524L55.0596 51.7769L54.6146 53.0467C54.5796 53.1402 54.4395 53.1871 54.2929 53.1871C54.1701 53.1871 54.0415 53.1521 54.0003 53.0467L53.0993 50.7358C53.0758 50.6889 53.0701 50.6538 53.0701 50.6246C53.0701 50.4433 53.3626 50.3144 53.5616 50.3144C53.6609 50.3144 53.7486 50.3551 53.7783 50.4371L54.3633 52.0987L54.8021 50.6534C54.8429 50.5191 54.9426 50.5014 55.0596 50.5014C55.1708 50.5014 55.2759 50.5191 55.3166 50.6534L55.7496 52.1044L56.3409 50.4371C56.3701 50.3609 56.4521 50.3144 56.5571 50.3144C56.7446 50.3144 57.0429 50.4429 57.0429 50.6304C57.0429 50.6654 57.0371 50.7062 57.0194 50.7358L56.1184 53.0524Z" fill="white"/>
<path d="M51.7126 53.0524C51.6714 53.1521 51.5429 53.1871 51.4143 53.1871C51.2681 53.1871 51.1391 53.1402 51.1041 53.0524L50.6534 51.7769L50.2088 53.0467C50.1738 53.1402 50.0333 53.1871 49.8871 53.1871C49.7643 53.1871 49.6354 53.1521 49.5946 53.0467L48.6936 50.7358C48.6701 50.6889 48.6643 50.6538 48.6643 50.6246C48.6643 50.4433 48.9568 50.3144 49.1558 50.3144C49.2551 50.3144 49.3428 50.3551 49.3721 50.4371L49.9571 52.0987L50.3959 50.6534C50.4371 50.5191 50.5364 50.5014 50.6534 50.5014C50.7646 50.5014 50.8701 50.5191 50.9109 50.6534L51.3439 52.1044L51.9347 50.4371C51.9639 50.3609 52.0459 50.3144 52.1514 50.3144C52.3384 50.3144 52.6371 50.4429 52.6371 50.6304C52.6371 50.6654 52.6313 50.7062 52.6136 50.7358L51.7126 53.0524Z" fill="white"/>
<path d="M41.0047 52.3504C41.0047 51.8358 39.618 52.1576 39.618 51.1804C39.618 50.7651 39.8812 50.3086 40.6652 50.3086C41.1394 50.3086 41.5955 50.4726 41.5955 50.6889C41.5955 50.7943 41.4962 51.0518 41.3207 51.0518C41.1802 51.0518 40.9989 50.8821 40.6772 50.8821C40.3847 50.8821 40.2677 51.0283 40.2677 51.1453C40.2677 51.5726 41.6717 51.2801 41.6717 52.3212C41.6717 52.8423 41.2857 53.1756 40.5952 53.1756C39.9986 53.1756 39.5364 52.9297 39.5364 52.6722C39.5364 52.5494 39.6414 52.3389 39.7877 52.3389C39.9574 52.3389 40.0864 52.6021 40.5779 52.6021C40.9227 52.6021 41.0047 52.4674 41.0047 52.3504Z" fill="white"/>
<path d="M37.0201 50.5776V50.7531C37.1544 50.5253 37.4353 50.3086 37.8098 50.3086C38.3949 50.3086 38.8571 50.8471 38.8571 51.4964V51.9759C38.8571 52.6021 38.3776 53.1756 37.8333 53.1756C37.4823 53.1756 37.1778 52.9531 37.067 52.7134V54.1759C37.067 54.2987 36.8915 54.4157 36.6806 54.4157C36.4643 54.4157 36.3123 54.2987 36.3123 54.1759V50.5776C36.3123 50.4371 36.47 50.3436 36.669 50.3436C36.8738 50.3436 37.0201 50.4371 37.0201 50.5776ZM38.1023 51.4964C38.1023 51.2331 37.8626 50.9698 37.5701 50.9698C37.3245 50.9698 37.067 51.1684 37.067 51.4964V52.0814C37.067 52.2042 37.2833 52.5144 37.5816 52.5144C37.8568 52.5144 38.1023 52.2454 38.1023 51.9759V51.4964Z" fill="white"/>
<path d="M34.6737 52.1749C34.6737 52.4031 34.7553 52.4851 35.0012 52.4851H35.2295C35.4458 52.4851 35.5512 52.6433 35.5512 52.8011C35.5512 52.9651 35.4458 53.1229 35.2295 53.1229H35.0012C34.2992 53.1229 33.9189 52.8361 33.9189 52.1749V49.3375C33.9189 49.197 34.1179 49.1035 34.2934 49.1035C34.4867 49.1035 34.6737 49.197 34.6737 49.3375V50.3436H35.3642C35.487 50.3436 35.557 50.4841 35.557 50.6188C35.557 50.7589 35.487 50.8936 35.3642 50.8936H34.6737V52.1749Z" fill="white"/>
<path d="M32.2919 52.1749C32.2919 52.4031 32.3739 52.4851 32.6199 52.4851H32.8481C33.0644 52.4851 33.1699 52.6433 33.1699 52.8011C33.1699 52.9651 33.0644 53.1229 32.8481 53.1229H32.6199C31.9179 53.1229 31.5376 52.8361 31.5376 52.1749V49.3375C31.5376 49.197 31.7362 49.1035 31.9121 49.1035C32.1049 49.1035 32.2924 49.197 32.2924 49.3375V50.3436H32.9829C33.1056 50.3436 33.1757 50.4841 33.1757 50.6188C33.1757 50.7589 33.1056 50.8936 32.9829 50.8936H32.2924V52.1749H32.2919Z" fill="white"/>
<path d="M28.887 52.883C28.887 53 28.7111 53.1228 28.5063 53.1228C28.2843 53.1228 28.1318 53 28.1318 52.883V48.9572C28.1318 48.8167 28.2843 48.7228 28.5063 48.7228C28.7111 48.7228 28.887 48.8167 28.887 48.9572V50.7531C28.9921 50.5252 29.2553 50.3085 29.6241 50.3085C30.1621 50.3085 30.6301 50.847 30.6301 51.4963V52.8826C30.6301 53.0408 30.4373 53.1228 30.2499 53.1228C30.0744 53.1228 29.8754 53.0408 29.8754 52.8826V51.4963C29.8754 51.233 29.6414 50.9698 29.3666 50.9698C29.1268 50.9698 28.8866 51.1684 28.8866 51.4963V52.883H28.887Z" fill="white"/>
<path d="M46.5632 48.8753C46.5632 48.9103 46.5574 48.9453 46.5397 48.9804L44.4394 53.2284C44.3982 53.3099 44.3047 53.3569 44.2112 53.3569C44.0414 53.3569 43.9302 53.2226 43.9302 53.0994C43.9302 53.0644 43.9421 53.0294 43.9594 53.0001L46.0597 48.7348C46.1009 48.6528 46.1829 48.612 46.2707 48.612C46.4112 48.612 46.5632 48.7171 46.5632 48.8753Z" fill="white"/>
<path d="M48.3308 48.8753C48.3308 48.9103 48.3246 48.9453 48.3073 48.9804L46.2066 53.2284C46.1658 53.3099 46.0723 53.3569 45.9787 53.3569C45.809 53.3569 45.6978 53.2226 45.6978 53.0994C45.6978 53.0644 45.7093 53.0294 45.727 53.0001L47.8273 48.7348C47.8685 48.6528 47.9501 48.612 48.0383 48.612C48.1783 48.612 48.3308 48.7171 48.3308 48.8753Z" fill="white"/>
<path d="M73.2181 49.6626L72.364 49.5385L71.9821 48.7644C71.7802 48.3557 71.3724 48.1024 70.9167 48.1024C70.4611 48.1024 70.0528 48.3561 69.8513 48.7644L69.4694 49.5385L68.6154 49.6626C68.1642 49.7281 67.7971 50.0379 67.6562 50.4709C67.5154 50.9043 67.6307 51.3711 67.957 51.6891L68.575 52.2915L68.4291 53.1422C68.3517 53.5909 68.533 54.0362 68.9017 54.304C69.27 54.5718 69.7491 54.6068 70.1529 54.3947L70.9167 53.993L71.6805 54.3947C71.8561 54.4865 72.0456 54.5323 72.2347 54.5323C72.4798 54.5323 72.7237 54.4552 72.9318 54.304C73.3001 54.0362 73.4813 53.5909 73.4043 53.1422L73.2585 52.2915L73.8764 51.6891C74.2027 51.3711 74.3177 50.9043 74.1772 50.4709C74.0363 50.0379 73.6688 49.7281 73.2181 49.6626ZM72.004 51.3027C71.7242 51.5758 71.5965 51.9689 71.6624 52.3541L71.7081 52.6198L71.4696 52.4946C71.1235 52.3125 70.7103 52.3125 70.3638 52.4946L70.1253 52.6198L70.1706 52.3541C70.2369 51.9689 70.1092 51.5758 69.8291 51.3027L69.6363 51.1144L69.9028 51.0757C70.2897 51.0196 70.6242 50.7766 70.7977 50.426L70.9167 50.1841L71.0362 50.426C71.2092 50.7766 71.5438 51.0196 71.9306 51.0757L72.1972 51.1144L72.004 51.3027Z" fill="white"/>
</g>
<defs>
<clipPath id="clip0">
<rect width="54" height="54" fill="white" transform="translate(23 23)"/>
</clipPath>
</defs>
</svg>
